<svg width="40" height="40" viewBox="0 0 40 40" fill="none" xmlns="http://www.w3.org/2000/svg">
<g clip-path="url(#clip0_5_1214)">
<path d="M6.34082 31.9424C6.77229 31.9424 7.12207 31.5926 7.12207 31.1611C7.12207 30.7297 6.77229 30.3799 6.34082 30.3799C5.90935 30.3799 5.55957 30.7297 5.55957 31.1611C5.55957 31.5926 5.90935 31.9424 6.34082 31.9424Z" fill="white"/>
<path d="M36.0314 7.26163H31.4346C30.397 7.26163 29.4441 7.63147 28.7007 8.24616V8.04288V5.89741C28.7007 2.82936 26.2049 0.333496 23.1369 0.333496H17.9248C17.4933 0.333496 17.1436 0.68334 17.1436 1.11475V3.26029C17.1436 6.32827 19.6394 8.82413 22.7074 8.82413H27.1382V11.558V13.6658V16.7437C26.9321 16.7305 26.7249 16.7233 26.5166 16.7233C24.4634 16.7233 22.5004 17.3562 20.8403 18.5537C20.4904 18.806 20.4112 19.2943 20.6636 19.6443C20.9161 19.9942 21.4043 20.0735 21.7543 19.8209C23.1467 18.8167 24.7936 18.2859 26.5166 18.2859C26.9331 18.2859 27.3448 18.3188 27.7493 18.3808C27.7828 18.3882 27.8171 18.3935 27.8521 18.3966C30.2832 18.8008 32.4331 20.2934 33.6516 22.4927C33.7943 22.7502 34.0608 22.8955 34.3357 22.8955C34.4637 22.8955 34.5936 22.8639 34.7136 22.7974C35.091 22.5883 35.2274 22.1128 35.0182 21.7354C33.6664 19.2954 31.3519 17.5859 28.7007 16.9733V14.4471H32.5162C34.8852 14.4471 36.8126 12.5198 36.8126 10.1507V8.04288C36.8126 7.61147 36.4629 7.26163 36.0314 7.26163ZM27.1382 7.26163H22.7074C20.5011 7.26163 18.7061 5.46662 18.7061 3.26029V1.896H23.1369C25.3432 1.896 27.1382 3.691 27.1382 5.89741V7.26163ZM35.2501 10.1508C35.2501 11.6582 34.0237 12.8847 32.5162 12.8847H28.7007V11.5581C28.7007 10.0507 29.9271 8.8242 31.4346 8.8242H35.2501V10.1508Z" fill="white"/>
<path d="M39.7392 25.6884C39.0573 24.1441 37.2462 23.4427 35.7019 24.1242C35.698 24.1259 35.6941 24.1277 35.6902 24.1294L30.5858 26.4834C30.1939 26.6641 30.0228 27.1283 30.2034 27.5201C30.3841 27.9119 30.8483 28.083 31.2401 27.9024L36.3383 25.5513C37.0932 25.2215 37.9766 25.5651 38.3098 26.3195C38.6436 27.0757 38.3 27.9624 37.5439 28.2963L27.0981 32.9084C25.443 33.6393 23.5642 33.5969 21.9437 32.7916L18.1199 30.892C16.0824 29.8798 13.7202 29.8263 11.6391 30.7451L11.564 30.7784L8.70625 24.3061L12.6737 22.5544C14.5638 21.7198 16.6728 21.6526 18.6122 22.3647L26.3015 25.1885C27.003 25.4462 27.3769 26.2309 27.135 26.938C26.8885 27.6586 26.1011 28.0461 25.3798 27.8023L19.4337 25.7911C19.0249 25.6528 18.5816 25.8721 18.4433 26.2808C18.305 26.6896 18.5243 27.133 18.933 27.2712L24.8791 29.2824C25.1905 29.3877 25.5076 29.4377 25.8197 29.4377C27.0461 29.4377 28.1954 28.6657 28.6134 27.4439C29.128 25.9397 28.3326 24.2699 26.8402 23.7219L19.151 20.898C16.8296 20.0456 14.3052 20.1262 12.0429 21.1249L8.04984 22.888C7.82523 22.5428 7.50094 22.2758 7.10945 22.1241C6.61648 21.9331 6.07859 21.9455 5.59695 22.1582L0.467656 24.4056C0.183594 24.5301 0 24.811 0 25.1212V38.8851C0 39.1565 0.140781 39.4083 0.371875 39.5506C0.497031 39.6276 0.638906 39.6664 0.78125 39.6664C0.901719 39.6664 1.02242 39.6386 1.13344 39.5825L11.0913 34.5521C11.5648 34.3367 11.9284 33.9516 12.1166 33.4658C12.2734 33.0611 12.2931 32.6262 12.177 32.2158L12.2702 32.1747C13.9255 31.4438 15.8041 31.4865 17.4247 32.2916L21.2484 34.1912C23.2859 35.2034 25.648 35.2569 27.7292 34.338L38.1751 29.7259C39.7194 29.0439 40.421 27.2326 39.7392 25.6884ZM10.6597 32.9012C10.6195 33.0051 10.5412 33.087 10.4394 33.1319C10.427 33.1374 10.4148 33.1433 10.4027 33.1494L1.5625 37.6151V34.1953L3.87328 33.0605C4.26062 32.8703 4.42039 32.4022 4.23016 32.0148C4.03992 31.6275 3.57164 31.4677 3.18453 31.658L1.5625 32.4544V25.6318L6.22563 23.5884C6.3275 23.5435 6.44078 23.5409 6.54453 23.581C6.64836 23.6212 6.73031 23.6995 6.77531 23.8013L10.4502 32.1241C10.4505 32.1249 10.4508 32.1256 10.4511 32.1263L10.6524 32.5823C10.6973 32.6841 10.6999 32.7974 10.6597 32.9012Z" fill="white"/>
</g>
<defs>
<clipPath id="clip0_5_1214">
<rect width="40" height="40" fill="white"/>
</clipPath>
</defs>
</svg>
